<?xml version="1.0" standalone="no"?>
<!DOCTYPE svg PUBLIC "-//W3C//DTD SVG 20010904//EN"
 "http://www.w3.org/TR/2001/REC-SVG-20010904/DTD/svg10.dtd">
<svg version="1.0" xmlns="http://www.w3.org/2000/svg"
 width="120.000000pt" height="40.000000pt" viewBox="0 0 120.000000 40.000000"
 preserveAspectRatio="xMidYMid meet">

<g transform="translate(0.000000,40.000000) scale(0.100000,-0.100000)"
fill="#000000" stroke="none">
<path d="M827 293 c-4 -3 -7 -37 -7 -74 l0 -68 145 0 c80 1 147 4 149 7 2 4
-16 5 -40 3 l-44 -3 0 65 c0 50 -4 66 -16 71 -22 8 -82 7 -87 -1 -3 -5 15 -6
39 -4 l44 3 0 -66 0 -66 -40 0 -40 0 -2 43 c-1 34 -2 36 -5 11 -3 -27 -7 -30
-28 -26 -21 4 -24 11 -28 56 l-3 51 -2 -57 c-2 -56 -1 -58 23 -58 14 0 25 -4
25 -10 0 -5 -18 -10 -41 -10 l-41 0 4 70 c2 39 3 70 2 70 0 0 -4 -3 -7 -7z"/>
<path d="M1050 296 c0 -2 15 -6 34 -8 19 -2 32 0 30 4 -5 8 -64 12 -64 4z"/>
<path d="M47 283 c-13 -12 -8 -121 6 -125 23 -9 87 4 87 18 0 19 -20 28 -33
15 -20 -20 -27 -11 -27 36 0 45 0 46 19 29 23 -21 41 -14 41 15 0 16 -7 19
-43 19 -24 0 -47 -3 -50 -7z"/>
<path d="M150 220 l0 -70 40 0 c33 0 40 3 40 20 0 15 -7 20 -25 20 -23 0 -24
2 -18 50 5 46 4 50 -16 50 -19 0 -21 -5 -21 -70z"/>
<path d="M240 225 c0 -58 2 -65 20 -65 18 0 20 7 20 65 0 58 -2 65 -20 65 -18
0 -20 -7 -20 -65z"/>
<path d="M290 225 c0 -49 3 -65 14 -65 8 0 17 13 21 28 3 16 12 29 20 29 8 0
17 -13 20 -29 4 -15 13 -28 21 -28 11 0 14 16 14 65 0 56 -3 65 -18 65 -10 0
-23 -5 -29 -11 -8 -8 -13 -8 -17 0 -4 6 -16 11 -27 11 -17 0 -19 -7 -19 -65z"/>
<path d="M410 223 l0 -68 45 3 46 4 -3 62 -3 61 -42 3 -43 3 0 -68z m60 27 c0
-5 -7 -10 -15 -10 -8 0 -15 5 -15 10 0 6 7 10 15 10 8 0 15 -4 15 -10z m-2
-51 c-2 -6 -8 -10 -13 -10 -5 0 -11 4 -13 10 -2 6 4 11 13 11 9 0 15 -5 13
-11z"/>
<path d="M510 224 c0 -57 2 -65 18 -62 14 3 18 16 20 66 3 57 1 62 -18 62 -18
0 -20 -6 -20 -66z"/>
<path d="M560 225 c0 -50 3 -65 14 -65 8 0 16 12 18 28 l4 27 12 -27 c7 -18
19 -28 32 -28 18 0 20 6 20 65 0 58 -2 65 -20 65 -14 0 -20 -7 -21 -22 l0 -23
-11 23 c-6 12 -19 22 -30 22 -16 0 -18 -8 -18 -65z"/>
<path d="M670 225 l0 -65 45 0 c45 0 45 0 45 35 0 29 -4 35 -21 35 -18 0 -20
-4 -15 -26 5 -19 3 -25 -6 -22 -7 3 -14 21 -16 42 -3 37 -3 38 27 31 27 -6 31
-4 31 14 0 18 -6 21 -45 21 l-45 0 0 -65z"/>
<path d="M954 257 c-9 -24 0 -70 14 -73 7 -1 8 0 2 3 -13 6 -13 73 -1 73 5 0
12 -12 14 -27 5 -28 5 -28 3 1 -1 32 -22 47 -32 23z"/>
<path d="M1074 255 c16 -17 46 -20 46 -5 0 5 -6 7 -14 4 -8 -3 -17 -1 -21 5
-3 6 -11 11 -16 11 -6 0 -4 -7 5 -15z"/>
<path d="M1073 210 c3 -10 0 -21 -7 -24 -6 -2 -3 -5 7 -5 14 -1 17 4 12 18 -4
15 0 21 17 24 19 4 19 4 -6 6 -23 1 -27 -2 -23 -19z"/>
</g>
</svg>
